<svg width="56" height="140" viewBox="0 0 56 140" fill="none" xmlns="http://www.w3.org/2000/svg">
<g clip-path="url(#clip0_0_286)">
<g clip-path="url(#clip1_0_286)">
<rect y="83.9961" width="56" height="56" rx="28" fill="#FAFAFA"/>
<rect x="0.5" y="84.4961" width="55" height="55" rx="27.5" stroke="#87879D" stroke-opacity="0.25"/>
<path d="M24.552 118.156C23.7947 118.156 23.1013 118.017 22.472 117.74C21.8427 117.463 21.3093 117.073 20.872 116.572C20.4347 116.071 20.0933 115.463 19.848 114.748C19.6027 114.033 19.48 113.244 19.48 112.38C19.48 111.516 19.6027 110.732 19.848 110.028C20.0933 109.313 20.4347 108.705 20.872 108.204C21.32 107.703 21.8533 107.313 22.472 107.036C23.1013 106.759 23.7947 106.62 24.552 106.62C25.3093 106.62 25.9973 106.759 26.616 107.036C27.2453 107.313 27.7787 107.703 28.216 108.204C28.664 108.705 29.0107 109.313 29.256 110.028C29.5013 110.732 29.624 111.516 29.624 112.38C29.624 113.244 29.5013 114.033 29.256 114.748C29.0107 115.463 28.6693 116.071 28.232 116.572C27.7947 117.073 27.2613 117.463 26.632 117.74C26.0027 118.017 25.3093 118.156 24.552 118.156ZM24.552 115.916C25.3413 115.916 25.96 115.601 26.408 114.972C26.8667 114.343 27.096 113.479 27.096 112.38C27.096 111.303 26.8667 110.449 26.408 109.82C25.9493 109.18 25.3307 108.86 24.552 108.86C23.7733 108.86 23.1547 109.18 22.696 109.82C22.2373 110.449 22.008 111.303 22.008 112.38C22.008 113.479 22.232 114.343 22.68 114.972C23.1387 115.601 23.7627 115.916 24.552 115.916ZM35.3094 106.796V117.996H32.7174V109.42L30.3974 110.348V108.108L33.6774 106.796H35.3094Z" fill="#87879D"/>
</g>
<path opacity="0.25" d="M27.5 83.9961V-0.00390625" stroke="#87879D"/>
</g>
<defs>
<clipPath id="clip0_0_286">
<rect width="56" height="140" fill="white"/>
</clipPath>
<clipPath id="clip1_0_286">
<rect width="56" height="56" fill="white" transform="translate(0 83.9961)"/>
</clipPath>
</defs>
</svg>
