<svg width="56" height="140" viewBox="0 0 56 140" fill="none" xmlns="http://www.w3.org/2000/svg">
<g clip-path="url(#clip0_0_324)">
<g clip-path="url(#clip1_0_324)">
<rect y="83.9961" width="56" height="56" rx="28" fill="#FAFAFA"/>
<rect x="0.5" y="84.4961" width="55" height="55" rx="27.5" stroke="#87879D" stroke-opacity="0.25"/>
<path d="M23.4661 118.156C22.7087 118.156 22.0154 118.017 21.3861 117.74C20.7567 117.463 20.2234 117.073 19.7861 116.572C19.3487 116.071 19.0074 115.463 18.7621 114.748C18.5167 114.033 18.3941 113.244 18.3941 112.38C18.3941 111.516 18.5167 110.732 18.7621 110.028C19.0074 109.313 19.3487 108.705 19.7861 108.204C20.2341 107.703 20.7674 107.313 21.3861 107.036C22.0154 106.759 22.7087 106.62 23.4661 106.62C24.2234 106.62 24.9114 106.759 25.5301 107.036C26.1594 107.313 26.6927 107.703 27.1301 108.204C27.5781 108.705 27.9247 109.313 28.1701 110.028C28.4154 110.732 28.5381 111.516 28.5381 112.38C28.5381 113.244 28.4154 114.033 28.1701 114.748C27.9247 115.463 27.5834 116.071 27.1461 116.572C26.7087 117.073 26.1754 117.463 25.5461 117.74C24.9167 118.017 24.2234 118.156 23.4661 118.156ZM23.4661 115.916C24.2554 115.916 24.8741 115.601 25.3221 114.972C25.7807 114.343 26.0101 113.479 26.0101 112.38C26.0101 111.303 25.7807 110.449 25.3221 109.82C24.8634 109.18 24.2447 108.86 23.4661 108.86C22.6874 108.86 22.0687 109.18 21.6101 109.82C21.1514 110.449 20.9221 111.303 20.9221 112.38C20.9221 113.479 21.1461 114.343 21.5941 114.972C22.0527 115.601 22.6767 115.916 23.4661 115.916ZM29.3189 117.996V116.188L33.8149 112.284C34.2203 111.921 34.5136 111.591 34.6949 111.292C34.8869 110.993 34.9829 110.679 34.9829 110.348C34.9829 109.921 34.8123 109.569 34.4709 109.292C34.1296 109.004 33.6976 108.86 33.1749 108.86C32.6523 108.86 32.1616 108.967 31.7029 109.18C31.2549 109.393 30.7589 109.745 30.2149 110.236L28.7749 108.508C29.4469 107.9 30.1616 107.441 30.9189 107.132C31.6869 106.812 32.4709 106.652 33.2709 106.652C33.9003 106.652 34.4763 106.737 34.9989 106.908C35.5216 107.079 35.9643 107.319 36.3269 107.628C36.7003 107.937 36.9883 108.311 37.1909 108.748C37.4043 109.185 37.5109 109.665 37.5109 110.188C37.5109 110.807 37.3456 111.393 37.0149 111.948C36.6949 112.492 36.1669 113.084 35.4309 113.724L32.9669 115.836H37.6229V117.996H29.3189Z" fill="#87879D"/>
</g>
<path opacity="0.25" d="M27.5 83.9961V-0.00390625" stroke="#87879D"/>
</g>
<defs>
<clipPath id="clip0_0_324">
<rect width="56" height="140" fill="white"/>
</clipPath>
<clipPath id="clip1_0_324">
<rect width="56" height="56" fill="white" transform="translate(0 83.9961)"/>
</clipPath>
</defs>
</svg>
